<svg width="80" height="80" viewBox="0 0 80 80" fill="none" xmlns="http://www.w3.org/2000/svg">
<path fill-rule="evenodd" clip-rule="evenodd" d="M35.0706 3C17.3576 3 3.00122 17.3426 3.00122 35.0316C3.00122 52.7206 17.3576 67.0632 35.0706 67.0632C52.7836 67.0632 67.14 52.7206 67.14 35.0316C67.14 17.3426 52.7836 3 35.0706 3ZM0.0012207 35.0316C0.0012207 15.6826 15.7039 0 35.0706 0C54.4373 0 70.14 15.6826 70.14 35.0316C70.14 44.1889 66.6228 52.525 60.8647 58.766L79.9592 77.839L77.839 79.9615L58.7385 60.8825C52.5004 66.5845 44.1919 70.0632 35.0706 70.0632C15.7039 70.0632 0.0012207 54.3806 0.0012207 35.0316ZM34.325 11.7492C34.7048 12.4761 34.4234 13.3733 33.6965 13.7531C31.2159 15.0492 29.125 16.9806 27.638 19.3493C26.1509 21.718 25.3211 24.4389 25.2335 27.2331C25.1458 30.0274 25.8034 32.7948 27.139 35.2518C28.4746 37.7088 30.4402 39.7672 32.8347 41.2159C35.2292 42.6646 37.9664 43.4515 40.7657 43.4958C43.5651 43.5401 46.3259 42.8402 48.7651 41.468C51.2043 40.0957 53.2343 38.1005 54.6471 35.6869C56.06 33.2734 56.805 30.5282 56.806 27.7326C56.8062 26.9124 57.4713 26.2478 58.2915 26.2481C59.1116 26.2483 59.7762 26.9134 59.776 27.7336C59.7748 31.0564 58.8893 34.3191 57.2103 37.1874C55.5313 40.0556 53.1192 42.4262 50.2213 44.0565C47.3235 45.6867 44.044 46.5181 40.7188 46.4654C37.3936 46.4128 34.142 45.4782 31.2973 43.757C28.4526 42.0359 26.1168 39.5902 24.5296 36.6702C22.9423 33.7503 22.1607 30.4612 22.2649 27.14C22.3691 23.8188 23.3554 20.5851 25.1226 17.7702C26.8897 14.9553 29.3741 12.6605 32.3211 11.1207C33.048 10.7409 33.9452 11.0223 34.325 11.7492ZM41.0158 18.6907C36.0192 18.6907 31.9716 22.7362 31.9716 27.7231C31.9716 32.7099 36.0192 36.7554 41.0158 36.7554C46.0123 36.7554 50.06 32.7099 50.06 27.7231C50.06 22.7362 46.0123 18.6907 41.0158 18.6907ZM29.0016 27.7231C29.0016 21.0928 34.3821 15.7207 41.0158 15.7207C47.6495 15.7207 53.03 21.0928 53.03 27.7231C53.03 34.3534 47.6495 39.7254 41.0158 39.7254C34.3821 39.7254 29.0016 34.3534 29.0016 27.7231ZM41.0159 24.5792C39.2751 24.5792 37.8668 25.9884 37.8668 27.7231C37.8668 29.4578 39.2751 30.8669 41.0159 30.8669C42.7566 30.8669 44.1649 29.4578 44.1649 27.7231C44.1649 25.9884 42.7566 24.5792 41.0159 24.5792ZM34.8968 27.7231C34.8968 24.3449 37.638 21.6092 41.0159 21.6092C44.3938 21.6092 47.1349 24.3449 47.1349 27.7231C47.1349 31.1012 44.3938 33.8369 41.0159 33.8369C37.638 33.8369 34.8968 31.1012 34.8968 27.7231ZM13.2286 39.3528C12.9098 38.5971 12.0388 38.243 11.2831 38.5618C10.5275 38.8806 10.1733 39.7516 10.4921 40.5072C12.3188 44.8371 15.0458 48.7296 18.4923 51.9269C21.9389 55.1242 26.0262 57.5532 30.4835 59.053C31.2608 59.3146 32.1029 58.8965 32.3645 58.1192C32.6261 57.3419 32.208 56.4997 31.4307 56.2381C27.3719 54.8724 23.6502 52.6606 20.5122 49.7495C17.3742 46.8385 14.8915 43.2946 13.2286 39.3528ZM18.2131 22.5818C18.3939 21.7819 17.8919 20.9868 17.0919 20.806C16.292 20.6252 15.4969 21.1271 15.3161 21.9271C14.4456 25.779 14.4539 29.7772 15.3404 33.6255C16.2269 37.4737 17.9689 41.0733 20.4372 44.1575C22.9055 47.2417 26.0369 49.7315 29.5991 51.4425C33.161 53.1533 37.0625 54.0417 41.0146 54.0419H41.0158L41.0158 52.5569L41.0146 54.0419C43.4298 54.0438 45.834 53.716 48.1604 53.0676C48.9505 52.8474 49.4124 52.0284 49.1922 51.2384C48.972 50.4483 48.153 49.9864 47.363 50.2066C45.297 50.7825 43.1619 51.0736 41.017 51.0719H41.0158C37.5083 51.0718 34.0459 50.2835 30.885 48.7653C27.7241 47.247 24.9459 45.0379 22.7561 42.3017C20.5663 39.5655 19.021 36.3723 18.2346 32.9587C17.4482 29.5452 17.4408 25.9986 18.2131 22.5818Z" fill="url(#paint0_linear_3158_17644)"/>
<defs>
<linearGradient id="paint0_linear_3158_17644" x1="79.4174" y1="80.3577" x2="15.2467" y2="-10.8043" gradientUnits="userSpaceOnUse">
<stop stop-color="#B10062"/>
<stop offset="1" stop-color="#F51627"/>
</linearGradient>
</defs>
</svg>
