<svg width="81" height="80" viewBox="0 0 81 80" fill="none" xmlns="http://www.w3.org/2000/svg">
<path fill-rule="evenodd" clip-rule="evenodd" d="M14.3174 29.7158L12.2011 27.5896C18.2727 21.5395 26.6478 17.7996 35.8963 17.7996C45.2123 17.7996 53.6419 21.5942 59.7239 27.7221L57.6117 29.8526C52.0719 24.2622 44.3885 20.7996 35.8963 20.7996C27.4737 20.7996 19.8466 24.2058 14.3174 29.7158ZM35.8958 34.5823C38.9662 34.5823 41.8441 35.4067 44.3201 36.8462L39.9712 38.1946C38.6832 37.7966 37.3145 37.5823 35.8958 37.5823C32.0936 37.5823 28.651 39.1216 26.1571 41.611L24.0407 39.4847C27.0771 36.4553 31.2677 34.5823 35.8958 34.5823ZM36.0009 47.7747C37.0235 47.7747 37.9465 48.2015 38.6014 48.8867L36 51.5L33.3996 48.8874C34.0545 48.2018 34.9778 47.7747 36.0009 47.7747ZM35.902 4.01245C49.0023 4.01245 60.8601 9.33183 69.4334 17.9285L71.5455 15.798C62.4301 6.66384 49.826 1.01245 35.902 1.01245C22.0306 1.01245 9.46909 6.62129 0.361816 15.6948L2.47817 17.8211C11.0429 9.28755 22.8565 4.01245 35.902 4.01245ZM61.1905 36.8909L61.6354 37.0292L79.2446 42.4988L80.2997 42.8265V43.9313V62.6988C80.2997 67.1223 77.9379 71.2092 74.1052 73.4179L64.0229 79.2281C62.2698 80.2384 60.1112 80.2384 58.3581 79.2281L48.2758 73.4179C44.4431 71.2092 42.0813 67.1223 42.0813 62.6988V43.9313V42.8265L43.1363 42.4988L60.7455 37.0292L61.1905 36.8909ZM45.0813 45.0361V62.6988C45.0813 66.0496 46.8704 69.1455 49.7737 70.8186L59.856 76.6288C60.682 77.1048 61.699 77.1048 62.525 76.6288L72.6073 70.8186C75.5106 69.1455 77.2997 66.0496 77.2997 62.6988V45.0361L61.1905 40.0323L45.0813 45.0361ZM51.547 57.5682L57.066 63.0873C57.1726 63.1938 57.3453 63.1938 57.4518 63.0873L63.8121 56.727L71.4259 49.1132L73.5472 51.2345L65.9334 58.8484L59.5732 65.2086C58.295 66.4867 56.2228 66.4867 54.9447 65.2086L49.4257 59.6896L51.547 57.5682Z" fill="url(#paint0_linear_2719_18452)"/>
<defs>
<linearGradient id="paint0_linear_2719_18452" x1="79.7581" y1="80.3771" x2="16.6445" y2="-10.3823" gradientUnits="userSpaceOnUse">
<stop stop-color="#B10062"/>
<stop offset="1" stop-color="#F51627"/>
</linearGradient>
</defs>
</svg>
